<svg xmlns="http://www.w3.org/2000/svg" width="14.87" height="18.309" viewBox="0 0 14.87 18.309">
  <g id="delete_2_" data-name="delete (2)" transform="translate(0.003 0.001)" opacity="0.8">
    <path id="Path_380" data-name="Path 380" d="M222.827,154.7a.429.429,0,0,0-.429.429v8.1a.429.429,0,0,0,.858,0v-8.1A.429.429,0,0,0,222.827,154.7Zm0,0" transform="translate(-212.865 -148.071)" fill="#333"/>
    <path id="Path_381" data-name="Path 381" d="M104.827,154.7a.429.429,0,0,0-.429.429v8.1a.429.429,0,0,0,.858,0v-8.1A.429.429,0,0,0,104.827,154.7Zm0,0" transform="translate(-99.925 -148.071)" fill="#333"/>
    <path id="Path_382" data-name="Path 382" d="M1.215,5.449V16.014a2.366,2.366,0,0,0,.629,1.632,2.112,2.112,0,0,0,1.532.662h8.113a2.111,2.111,0,0,0,1.532-.662,2.366,2.366,0,0,0,.629-1.632V5.449a1.638,1.638,0,0,0-.42-3.221h-2.2V1.692A1.684,1.684,0,0,0,9.336,0H5.528a1.684,1.684,0,0,0-1.7,1.694v.536h-2.2a1.638,1.638,0,0,0-.42,3.221Zm10.274,12H3.376a1.358,1.358,0,0,1-1.3-1.436V5.487h10.72V16.014a1.358,1.358,0,0,1-1.3,1.436ZM4.688,1.692a.826.826,0,0,1,.84-.836H9.336a.826.826,0,0,1,.84.836v.536H4.688ZM1.635,3.086H13.229a.772.772,0,1,1,0,1.544H1.635a.772.772,0,1,1,0-1.544Zm0,0" transform="translate(0 0)" fill="#333"/>
    <path id="Path_383" data-name="Path 383" d="M163.827,154.7a.429.429,0,0,0-.429.429v8.1a.429.429,0,0,0,.858,0v-8.1A.429.429,0,0,0,163.827,154.7Zm0,0" transform="translate(-156.395 -148.071)" fill="#333"/>
  </g>
</svg>
