<svg xmlns="http://www.w3.org/2000/svg" width="23.999" height="18" viewBox="0 0 23.999 18">
  <g id="enable" transform="translate(0 -3)" opacity="0.8">
    <g id="Group_214" data-name="Group 214">
      <path id="Path_375" data-name="Path 375" d="M12,21A12.646,12.646,0,0,1,.233,13.186a3.139,3.139,0,0,1,0-2.371A12.645,12.645,0,0,1,12,3a12.646,12.646,0,0,1,11.767,7.814,3.139,3.139,0,0,1,0,2.371A12.645,12.645,0,0,1,12,21ZM12,4A11.65,11.65,0,0,0,1.158,11.194a2.139,2.139,0,0,0,0,1.611A11.649,11.649,0,0,0,12,20a11.65,11.65,0,0,0,10.842-7.194,2.139,2.139,0,0,0,0-1.611A11.649,11.649,0,0,0,12,4Z" fill="#333"/>
    </g>
    <g id="Group_215" data-name="Group 215">
      <path id="Path_376" data-name="Path 376" d="M12,16a4,4,0,1,1,4-4A4,4,0,0,1,12,16Zm0-7a3,3,0,1,0,3,3A3,3,0,0,0,12,9Z" fill="#333"/>
    </g>
  </g>
</svg>
